<svg width="39" height="39" viewBox="0 0 39 39" fill="none" xmlns="http://www.w3.org/2000/svg">
<rect width="39" height="39" rx="10" fill="#A997DF" fill-opacity="0.3"/>
<path d="M9.00529 28.7031C8.25182 27.9496 7.87508 27.0347 7.87508 25.9583H5.29175V11.75C5.29175 11.0395 5.5447 10.4314 6.0506 9.92548C6.5565 9.41958 7.16466 9.16663 7.87508 9.16663H25.9584V14.3333H29.8334L33.7084 19.5V25.9583H31.1251C31.1251 27.0347 30.7483 27.9496 29.9949 28.7031C29.2414 29.4566 28.3265 29.8333 27.2501 29.8333C26.1737 29.8333 25.2588 29.4566 24.5053 28.7031C23.7518 27.9496 23.3751 27.0347 23.3751 25.9583H15.6251C15.6251 27.0347 15.2483 27.9496 14.4949 28.7031C13.7414 29.4566 12.8265 29.8333 11.7501 29.8333C10.6737 29.8333 9.75876 29.4566 9.00529 28.7031ZM12.6704 26.8786C12.918 26.631 13.0417 26.3243 13.0417 25.9583C13.0417 25.5923 12.918 25.2855 12.6704 25.038C12.4228 24.7904 12.1161 24.6666 11.7501 24.6666C11.3841 24.6666 11.0773 24.7904 10.8298 25.038C10.5822 25.2855 10.4584 25.5923 10.4584 25.9583C10.4584 26.3243 10.5822 26.631 10.8298 26.8786C11.0773 27.1262 11.3841 27.25 11.7501 27.25C12.1161 27.25 12.4228 27.1262 12.6704 26.8786ZM7.87508 23.375H8.90841C9.27439 22.9875 9.69418 22.6753 10.1678 22.4385C10.6414 22.2017 11.1688 22.0833 11.7501 22.0833C12.3313 22.0833 12.8588 22.2017 13.3324 22.4385C13.806 22.6753 14.2258 22.9875 14.5917 23.375H23.3751V11.75H7.87508V23.375ZM28.1704 26.8786C28.418 26.631 28.5417 26.3243 28.5417 25.9583C28.5417 25.5923 28.418 25.2855 28.1704 25.038C27.9228 24.7904 27.6161 24.6666 27.2501 24.6666C26.8841 24.6666 26.5773 24.7904 26.3298 25.038C26.0822 25.2855 25.9584 25.5923 25.9584 25.9583C25.9584 26.3243 26.0822 26.631 26.3298 26.8786C26.5773 27.1262 26.8841 27.25 27.2501 27.25C27.6161 27.25 27.9228 27.1262 28.1704 26.8786ZM25.9584 20.7916H31.448L28.5417 16.9166H25.9584V20.7916Z" fill="#5E4383"/>
</svg>
