<svg width="12" height="17" viewBox="0 0 12 17" fill="none" xmlns="http://www.w3.org/2000/svg">
<path d="M1.5 16.5C1.0875 16.5 0.734375 16.3531 0.440625 16.0594C0.146875 15.7656 0 15.4125 0 15V1.5C0 1.0875 0.146875 0.734375 0.440625 0.440625C0.734375 0.146875 1.0875 0 1.5 0H9C9.4125 0 9.76562 0.146875 10.0594 0.440625C10.3531 0.734375 10.5 1.0875 10.5 1.5V3.825C10.725 3.9125 10.9062 4.05 11.0438 4.2375C11.1813 4.425 11.25 4.6375 11.25 4.875V6.375C11.25 6.6125 11.1813 6.825 11.0438 7.0125C10.9062 7.2 10.725 7.3375 10.5 7.425V15C10.5 15.4125 10.3531 15.7656 10.0594 16.0594C9.76562 16.3531 9.4125 16.5 9 16.5H1.5ZM1.5 15H9V1.5H1.5V15ZM5.78438 3.53438C5.92813 3.39063 6 3.2125 6 3C6 2.7875 5.92813 2.60938 5.78438 2.46563C5.64062 2.32188 5.4625 2.25 5.25 2.25C5.0375 2.25 4.85938 2.32188 4.71563 2.46563C4.57188 2.60938 4.5 2.7875 4.5 3C4.5 3.2125 4.57188 3.39063 4.71563 3.53438C4.85938 3.67813 5.0375 3.75 5.25 3.75C5.4625 3.75 5.64062 3.67813 5.78438 3.53438Z" fill="#FFFCFC"/>
</svg>
