<svg width="15" height="15" viewBox="0 0 15 15" fill="none" xmlns="http://www.w3.org/2000/svg">
<path d="M2.42187 11.9531C2.05729 11.5885 1.875 11.1458 1.875 10.625H0.625V3.75C0.625 3.40625 0.747396 3.11198 0.992187 2.86719C1.23698 2.6224 1.53125 2.5 1.875 2.5H10.625V5H12.5L14.375 7.5V10.625H13.125C13.125 11.1458 12.9427 11.5885 12.5781 11.9531C12.2135 12.3177 11.7708 12.5 11.25 12.5C10.7292 12.5 10.2865 12.3177 9.92187 11.9531C9.55729 11.5885 9.375 11.1458 9.375 10.625H5.625C5.625 11.1458 5.44271 11.5885 5.07812 11.9531C4.71354 12.3177 4.27083 12.5 3.75 12.5C3.22917 12.5 2.78646 12.3177 2.42187 11.9531ZM4.19531 11.0703C4.3151 10.9505 4.375 10.8021 4.375 10.625C4.375 10.4479 4.3151 10.2995 4.19531 10.1797C4.07552 10.0599 3.92708 10 3.75 10C3.57292 10 3.42448 10.0599 3.30469 10.1797C3.1849 10.2995 3.125 10.4479 3.125 10.625C3.125 10.8021 3.1849 10.9505 3.30469 11.0703C3.42448 11.1901 3.57292 11.25 3.75 11.25C3.92708 11.25 4.07552 11.1901 4.19531 11.0703ZM1.875 9.375H2.375C2.55208 9.1875 2.75521 9.03646 2.98437 8.92188C3.21354 8.80729 3.46875 8.75 3.75 8.75C4.03125 8.75 4.28646 8.80729 4.51562 8.92188C4.74479 9.03646 4.94792 9.1875 5.125 9.375H9.375V3.75H1.875V9.375ZM11.6953 11.0703C11.8151 10.9505 11.875 10.8021 11.875 10.625C11.875 10.4479 11.8151 10.2995 11.6953 10.1797C11.5755 10.0599 11.4271 10 11.25 10C11.0729 10 10.9245 10.0599 10.8047 10.1797C10.6849 10.2995 10.625 10.4479 10.625 10.625C10.625 10.8021 10.6849 10.9505 10.8047 11.0703C10.9245 11.1901 11.0729 11.25 11.25 11.25C11.4271 11.25 11.5755 11.1901 11.6953 11.0703ZM10.625 8.125H13.2812L11.875 6.25H10.625V8.125Z" fill="#FF8400"/>
</svg>
