<svg width="15" height="15" viewBox="0 0 15 15" fill="none" xmlns="http://www.w3.org/2000/svg">
<path d="M5 13.75C4.82292 13.75 4.67448 13.6901 4.55469 13.5703C4.4349 13.4505 4.375 13.3021 4.375 13.125V3.125C4.375 2.94792 4.4349 2.79948 4.55469 2.67969C4.67448 2.5599 4.82292 2.5 5 2.5H6.25V1.25H8.75V2.5H10C10.1771 2.5 10.3255 2.5599 10.4453 2.67969C10.5651 2.79948 10.625 2.94792 10.625 3.125V13.125C10.625 13.3021 10.5651 13.4505 10.4453 13.5703C10.3255 13.6901 10.1771 13.75 10 13.75H5ZM5.625 12.5H9.375V3.75H5.625V12.5Z" fill="#0C92A1"/>
</svg>
