<svg width="40" height="39" viewBox="0 0 40 39" fill="none" xmlns="http://www.w3.org/2000/svg">
<rect x="0.15" y="0.15" width="39.7" height="38.7" rx="7.85" fill="#DEDEDE"/>
<rect x="0.15" y="0.15" width="39.7" height="38.7" rx="7.85" stroke="#797979" stroke-width="0.3"/>
<path d="M17.4722 31.5789H11.3333C10.5389 31.5789 9.8588 31.3007 9.29306 30.7441C8.72731 30.1875 8.44444 29.5184 8.44444 28.7368V10.2632H7V7.42105H14.2222V6H22.8889V7.42105H30.1111V10.2632H28.6667V16.3737C28.2574 16.2553 27.7819 16.1546 27.2403 16.0717C26.6986 15.9888 26.2111 15.9474 25.7778 15.9474V10.2632H11.3333V28.7368H16.1C16.2444 29.2342 16.437 29.7257 16.6778 30.2112C16.9185 30.6967 17.1833 31.1526 17.4722 31.5789ZM14.2222 25.8947H15.6667C15.6667 24.4026 15.9074 23.177 16.3889 22.2178L17.1111 20.7789V13.1053H14.2222V25.8947ZM20 17.7237C20.4093 17.4632 20.8727 17.2026 21.3903 16.9421C21.9079 16.6816 22.4074 16.4921 22.8889 16.3737V13.1053H20V17.7237ZM20.6681 30.9217C19.2597 29.5362 18.5556 27.8605 18.5556 25.8947C18.5556 23.9289 19.2597 22.2533 20.6681 20.8678C22.0764 19.4822 23.7796 18.7895 25.7778 18.7895C27.7759 18.7895 29.4792 19.4822 30.8875 20.8678C32.2958 22.2533 33 23.9289 33 25.8947C33 27.8605 32.2958 29.5362 30.8875 30.9217C29.4792 32.3072 27.7759 33 25.7778 33C23.7796 33 22.0764 32.3072 20.6681 30.9217ZM28.1611 29.2342L29.1722 28.2395L26.5 25.6105V21.6316H25.0556V26.1789L28.1611 29.2342Z" fill="#4B4B4B"/>
</svg>
