<svg width="144" height="45" viewBox="0 0 144 45" fill="none" xmlns="http://www.w3.org/2000/svg">
<path d="M4.09756 43.6341V45H2.73171V43.6341H4.09756ZM4.09756 42.2683V43.6341H2.73171V42.2683H4.09756ZM4.09756 40.9024V42.2683H2.73171V40.9024H4.09756ZM4.09756 39.5366V40.9024H2.73171V39.5366H4.09756ZM4.09756 38.1707V39.5366H2.73171V38.1707H4.09756ZM4.09756 36.8049V38.1707H2.73171V36.8049H4.09756ZM4.09756 35.439V36.8049H2.73171V35.439H4.09756ZM4.09756 34.0732V35.439H2.73171V34.0732H4.09756ZM4.09756 32.7073V34.0732H2.73171V32.7073H4.09756ZM4.09756 31.3415V32.7073H2.73171V31.3415H4.09756ZM4.09756 29.9756V31.3415H2.73171V29.9756H4.09756ZM4.09756 28.6098V29.9756H2.73171V28.6098H4.09756ZM4.09756 27.2439V28.6098H2.73171V27.2439H4.09756ZM4.09756 25.878V27.2439H2.73171V25.878H4.09756ZM4.09756 24.5122V25.878H2.73171V24.5122H4.09756ZM5.46341 24.5122V25.878H4.09756V24.5122H5.46341ZM5.46341 25.878V27.2439H4.09756V25.878H5.46341ZM5.46341 27.2439V28.6098H4.09756V27.2439H5.46341ZM5.46341 28.6098V29.9756H4.09756V28.6098H5.46341ZM5.46341 29.9756V31.3415H4.09756V29.9756H5.46341ZM5.46341 31.3415V32.7073H4.09756V31.3415H5.46341ZM5.46341 32.7073V34.0732H4.09756V32.7073H5.46341ZM6.82927 34.0732V35.439H5.46341V34.0732H6.82927ZM6.82927 35.439V36.8049H5.46341V35.439H6.82927ZM6.82927 36.8049V38.1707H5.46341V36.8049H6.82927ZM6.82927 38.1707V39.5366H5.46341V38.1707H6.82927ZM6.82927 39.5366V40.9024H5.46341V39.5366H6.82927ZM6.82927 40.9024V42.2683H5.46341V40.9024H6.82927ZM6.82927 42.2683V43.6341H5.46341V42.2683H6.82927ZM6.82927 43.6341V45H5.46341V43.6341H6.82927ZM8.19512 43.6341V45H6.82927V43.6341H8.19512ZM9.56098 43.6341V45H8.19512V43.6341H9.56098ZM9.56098 42.2683V43.6341H8.19512V42.2683H9.56098ZM9.56098 40.9024V42.2683H8.19512V40.9024H9.56098ZM9.56098 39.5366V40.9024H8.19512V39.5366H9.56098ZM9.56098 38.1707V39.5366H8.19512V38.1707H9.56098ZM9.56098 36.8049V38.1707H8.19512V36.8049H9.56098ZM9.56098 35.439V36.8049H8.19512V35.439H9.56098ZM9.56098 34.0732V35.439H8.19512V34.0732H9.56098ZM8.19512 34.0732V35.439H6.82927V34.0732H8.19512ZM8.19512 32.7073V34.0732H6.82927V32.7073H8.19512ZM8.19512 35.439V36.8049H6.82927V35.439H8.19512ZM8.19512 36.8049V38.1707H6.82927V36.8049H8.19512ZM8.19512 38.1707V39.5366H6.82927V38.1707H8.19512ZM8.19512 39.5366V40.9024H6.82927V39.5366H8.19512ZM8.19512 40.9024V42.2683H6.82927V40.9024H8.19512ZM8.19512 42.2683V43.6341H6.82927V42.2683H8.19512ZM5.46341 43.6341V45H4.09756V43.6341H5.46341ZM5.46341 42.2683V43.6341H4.09756V42.2683H5.46341ZM5.46341 40.9024V42.2683H4.09756V40.9024H5.46341ZM5.46341 39.5366V40.9024H4.09756V39.5366H5.46341ZM5.46341 38.1707V39.5366H4.09756V38.1707H5.46341ZM5.46341 36.8049V38.1707H4.09756V36.8049H5.46341ZM5.46341 35.439V36.8049H4.09756V35.439H5.46341ZM5.46341 34.0732V35.439H4.09756V34.0732H5.46341ZM4.09756 10.8537V12.2195H2.73171V10.8537H4.09756ZM4.09756 12.2195V13.5854H2.73171V12.2195H4.09756ZM4.09756 13.5854V14.9512H2.73171V13.5854H4.09756ZM4.09756 14.9512V16.3171H2.73171V14.9512H4.09756ZM4.09756 16.3171V17.6829H2.73171V16.3171H4.09756ZM4.09756 17.6829V19.0488H2.73171V17.6829H4.09756ZM4.09756 19.0488V20.4146H2.73171V19.0488H4.09756ZM4.09756 20.4146V21.7805H2.73171V20.4146H4.09756ZM4.09756 21.7805V23.1463H2.73171V21.7805H4.09756ZM4.09756 23.1463V24.5122H2.73171V23.1463H4.09756ZM8.19512 10.8537V12.2195H6.82927V10.8537H8.19512ZM8.19512 12.2195V13.5854H6.82927V12.2195H8.19512ZM8.19512 13.5854V14.9512H6.82927V13.5854H8.19512ZM8.19512 14.9512V16.3171H6.82927V14.9512H8.19512ZM8.19512 16.3171V17.6829H6.82927V16.3171H8.19512ZM8.19512 17.6829V19.0488H6.82927V17.6829H8.19512ZM8.19512 20.4146V21.7805H6.82927V20.4146H8.19512ZM8.19512 21.7805V23.1463H6.82927V21.7805H8.19512ZM8.19512 23.1463V24.5122H6.82927V23.1463H8.19512ZM8.19512 24.5122V25.878H6.82927V24.5122H8.19512ZM8.19512 25.878V27.2439H6.82927V25.878H8.19512ZM8.19512 27.2439V28.6098H6.82927V27.2439H8.19512ZM8.19512 28.6098V29.9756H6.82927V28.6098H8.19512ZM9.56098 29.9756V31.3415H8.19512V29.9756H9.56098ZM9.56098 31.3415V32.7073H8.19512V31.3415H9.56098ZM9.56098 32.7073V34.0732H8.19512V32.7073H9.56098ZM9.56098 28.6098V29.9756H8.19512V28.6098H9.56098ZM9.56098 27.2439V28.6098H8.19512V27.2439H9.56098ZM9.56098 25.878V27.2439H8.19512V25.878H9.56098ZM9.56098 24.5122V25.878H8.19512V24.5122H9.56098ZM9.56098 23.1463V24.5122H8.19512V23.1463H9.56098ZM9.56098 21.7805V23.1463H8.19512V21.7805H9.56098ZM9.56098 20.4146V21.7805H8.19512V20.4146H9.56098ZM9.56098 19.0488V20.4146H8.19512V19.0488H9.56098ZM9.56098 17.6829V19.0488H8.19512V17.6829H9.56098ZM9.56098 16.3171V17.6829H8.19512V16.3171H9.56098ZM8.19512 19.0488V20.4146H6.82927V19.0488H8.19512ZM9.56098 14.9512V16.3171H8.19512V14.9512H9.56098ZM9.56098 13.5854V14.9512H8.19512V13.5854H9.56098ZM9.56098 12.2195V13.5854H8.19512V12.2195H9.56098ZM9.56098 10.8537V12.2195H8.19512V10.8537H9.56098ZM6.82927 10.8537V12.2195H5.46341V10.8537H6.82927ZM5.46341 10.8537V12.2195H4.09756V10.8537H5.46341ZM5.46341 12.2195V13.5854H4.09756V12.2195H5.46341ZM6.82927 12.2195V13.5854H5.46341V12.2195H6.82927ZM6.82927 13.5854V14.9512H5.46341V13.5854H6.82927ZM6.82927 14.9512V16.3171H5.46341V14.9512H6.82927ZM6.82927 16.3171V17.6829H5.46341V16.3171H6.82927ZM6.82927 17.6829V19.0488H5.46341V17.6829H6.82927ZM6.82927 19.0488V20.4146H5.46341V19.0488H6.82927ZM6.82927 20.4146V21.7805H5.46341V20.4146H6.82927ZM5.46341 21.7805V23.1463H4.09756V21.7805H5.46341ZM5.46341 23.1463V24.5122H4.09756V23.1463H5.46341ZM5.46341 20.4146V21.7805H4.09756V20.4146H5.46341ZM5.46341 19.0488V20.4146H4.09756V19.0488H5.46341ZM5.46341 17.6829V19.0488H4.09756V17.6829H5.46341ZM5.46341 16.3171V17.6829H4.09756V16.3171H5.46341ZM5.46341 14.9512V16.3171H4.09756V14.9512H5.46341ZM5.46341 13.5854V14.9512H4.09756V13.5854H5.46341ZM6.82927 21.7805V23.1463H5.46341V21.7805H6.82927ZM6.82927 23.1463V24.5122H5.46341V23.1463H6.82927ZM6.82927 24.5122V25.878H5.46341V24.5122H6.82927ZM6.82927 25.878V27.2439H5.46341V25.878H6.82927ZM6.82927 27.2439V28.6098H5.46341V27.2439H6.82927ZM6.82927 28.6098V29.9756H5.46341V28.6098H6.82927ZM6.82927 29.9756V31.3415H5.46341V29.9756H6.82927ZM6.82927 31.3415V32.7073H5.46341V31.3415H6.82927ZM6.82927 32.7073V34.0732H5.46341V32.7073H6.82927ZM8.19512 31.3415V32.7073H6.82927V31.3415H8.19512ZM8.19512 29.9756V31.3415H6.82927V29.9756H8.19512ZM30.0488 10.8537V12.2195H28.6829V10.8537H30.0488ZM30.0488 12.2195V13.5854H28.6829V12.2195H30.0488ZM30.0488 13.5854V14.9512H28.6829V13.5854H30.0488ZM30.0488 16.3171V17.6829H28.6829V16.3171H30.0488ZM30.0488 17.6829V19.0488H28.6829V17.6829H30.0488ZM30.0488 19.0488V20.4146H28.6829V19.0488H30.0488ZM30.0488 20.4146V21.7805H28.6829V20.4146H30.0488ZM30.0488 21.7805V23.1463H28.6829V21.7805H30.0488ZM30.0488 23.1463V24.5122H28.6829V23.1463H30.0488ZM30.0488 24.5122V25.878H28.6829V24.5122H30.0488ZM31.4146 25.878V27.2439H30.0488V25.878H31.4146ZM31.4146 27.2439V28.6098H30.0488V27.2439H31.4146ZM31.4146 28.6098V29.9756H30.0488V28.6098H31.4146ZM31.4146 29.9756V31.3415H30.0488V29.9756H31.4146ZM31.4146 31.3415V32.7073H30.0488V31.3415H31.4146ZM31.4146 32.7073V34.0732H30.0488V32.7073H31.4146ZM32.7805 32.7073V34.0732H31.4146V32.7073H32.7805ZM32.7805 34.0732V35.439H31.4146V34.0732H32.7805ZM32.7805 35.439V36.8049H31.4146V35.439H32.7805ZM32.7805 36.8049V38.1707H31.4146V36.8049H32.7805ZM32.7805 38.1707V39.5366H31.4146V38.1707H32.7805ZM32.7805 39.5366V40.9024H31.4146V39.5366H32.7805ZM32.7805 40.9024V42.2683H31.4146V40.9024H32.7805ZM32.7805 42.2683V43.6341H31.4146V42.2683H32.7805ZM32.7805 43.6341V45H31.4146V43.6341H32.7805ZM31.4146 43.6341V45H30.0488V43.6341H31.4146ZM31.4146 42.2683V43.6341H30.0488V42.2683H31.4146ZM31.4146 40.9024V42.2683H30.0488V40.9024H31.4146ZM31.4146 39.5366V40.9024H30.0488V39.5366H31.4146ZM31.4146 38.1707V39.5366H30.0488V38.1707H31.4146ZM31.4146 36.8049V38.1707H30.0488V36.8049H31.4146ZM31.4146 35.439V36.8049H30.0488V35.439H31.4146ZM30.0488 35.439V36.8049H28.6829V35.439H30.0488ZM30.0488 34.0732V35.439H28.6829V34.0732H30.0488ZM31.4146 34.0732V35.439H30.0488V34.0732H31.4146ZM30.0488 25.878V27.2439H28.6829V25.878H30.0488ZM30.0488 27.2439V28.6098H28.6829V27.2439H30.0488ZM30.0488 28.6098V29.9756H28.6829V28.6098H30.0488ZM30.0488 29.9756V31.3415H28.6829V29.9756H30.0488ZM30.0488 31.3415V32.7073H28.6829V31.3415H30.0488ZM30.0488 32.7073V34.0732H28.6829V32.7073H30.0488ZM30.0488 14.9512V16.3171H28.6829V14.9512H30.0488ZM30.0488 36.8049V38.1707H28.6829V36.8049H30.0488ZM30.0488 38.1707V39.5366H28.6829V38.1707H30.0488ZM30.0488 39.5366V40.9024H28.6829V39.5366H30.0488ZM30.0488 40.9024V42.2683H28.6829V40.9024H30.0488ZM30.0488 42.2683V43.6341H28.6829V42.2683H30.0488ZM30.0488 43.6341V45H28.6829V43.6341H30.0488ZM34.1463 43.6341V45H32.7805V43.6341H34.1463ZM35.5122 43.6341V45H34.1463V43.6341H35.5122ZM35.5122 42.2683V43.6341H34.1463V42.2683H35.5122ZM35.5122 40.9024V42.2683H34.1463V40.9024H35.5122ZM35.5122 39.5366V40.9024H34.1463V39.5366H35.5122ZM35.5122 38.1707V39.5366H34.1463V38.1707H35.5122ZM35.5122 36.8049V38.1707H34.1463V36.8049H35.5122ZM35.5122 35.439V36.8049H34.1463V35.439H35.5122ZM35.5122 34.0732V35.439H34.1463V34.0732H35.5122ZM35.5122 32.7073V34.0732H34.1463V32.7073H35.5122ZM35.5122 31.3415V32.7073H34.1463V31.3415H35.5122ZM35.5122 29.9756V31.3415H34.1463V29.9756H35.5122ZM35.5122 28.6098V29.9756H34.1463V28.6098H35.5122ZM35.5122 27.2439V28.6098H34.1463V27.2439H35.5122ZM35.5122 25.878V27.2439H34.1463V25.878H35.5122ZM35.5122 24.5122V25.878H34.1463V24.5122H35.5122ZM35.5122 23.1463V24.5122H34.1463V23.1463H35.5122ZM35.5122 21.7805V23.1463H34.1463V21.7805H35.5122ZM35.5122 20.4146V21.7805H34.1463V20.4146H35.5122ZM35.5122 19.0488V20.4146H34.1463V19.0488H35.5122ZM31.4146 10.8537V12.2195H30.0488V10.8537H31.4146ZM32.7805 10.8537V12.2195H31.4146V10.8537H32.7805ZM34.1463 10.8537V12.2195H32.7805V10.8537H34.1463ZM35.5122 10.8537V12.2195H34.1463V10.8537H35.5122ZM35.5122 12.2195V13.5854H34.1463V12.2195H35.5122ZM35.5122 13.5854V14.9512H34.1463V13.5854H35.5122ZM35.5122 14.9512V16.3171H34.1463V14.9512H35.5122ZM35.5122 16.3171V17.6829H34.1463V16.3171H35.5122ZM35.5122 17.6829V19.0488H34.1463V17.6829H35.5122ZM31.4146 12.2195V13.5854H30.0488V12.2195H31.4146ZM32.7805 12.2195V13.5854H31.4146V12.2195H32.7805ZM34.1463 12.2195V13.5854H32.7805V12.2195H34.1463ZM34.1463 13.5854V14.9512H32.7805V13.5854H34.1463ZM34.1463 14.9512V16.3171H32.7805V14.9512H34.1463ZM34.1463 16.3171V17.6829H32.7805V16.3171H34.1463ZM34.1463 17.6829V19.0488H32.7805V17.6829H34.1463ZM32.7805 17.6829V19.0488H31.4146V17.6829H32.7805ZM32.7805 16.3171V17.6829H31.4146V16.3171H32.7805ZM32.7805 14.9512V16.3171H31.4146V14.9512H32.7805ZM32.7805 13.5854V14.9512H31.4146V13.5854H32.7805ZM31.4146 13.5854V14.9512H30.0488V13.5854H31.4146ZM31.4146 14.9512V16.3171H30.0488V14.9512H31.4146ZM31.4146 16.3171V17.6829H30.0488V16.3171H31.4146ZM31.4146 17.6829V19.0488H30.0488V17.6829H31.4146ZM31.4146 19.0488V20.4146H30.0488V19.0488H31.4146ZM31.4146 20.4146V21.7805H30.0488V20.4146H31.4146ZM31.4146 21.7805V23.1463H30.0488V21.7805H31.4146ZM31.4146 23.1463V24.5122H30.0488V23.1463H31.4146ZM32.7805 23.1463V24.5122H31.4146V23.1463H32.7805ZM32.7805 21.7805V23.1463H31.4146V21.7805H32.7805ZM32.7805 20.4146V21.7805H31.4146V20.4146H32.7805ZM32.7805 19.0488V20.4146H31.4146V19.0488H32.7805ZM34.1463 19.0488V20.4146H32.7805V19.0488H34.1463ZM34.1463 20.4146V21.7805H32.7805V20.4146H34.1463ZM34.1463 21.7805V23.1463H32.7805V21.7805H34.1463ZM34.1463 23.1463V24.5122H32.7805V23.1463H34.1463ZM34.1463 24.5122V25.878H32.7805V24.5122H34.1463ZM34.1463 25.878V27.2439H32.7805V25.878H34.1463ZM34.1463 27.2439V28.6098H32.7805V27.2439H34.1463ZM34.1463 28.6098V29.9756H32.7805V28.6098H34.1463ZM34.1463 29.9756V31.3415H32.7805V29.9756H34.1463ZM34.1463 31.3415V32.7073H32.7805V31.3415H34.1463ZM32.7805 31.3415V32.7073H31.4146V31.3415H32.7805ZM32.7805 29.9756V31.3415H31.4146V29.9756H32.7805ZM32.7805 28.6098V29.9756H31.4146V28.6098H32.7805ZM32.7805 27.2439V28.6098H31.4146V27.2439H32.7805ZM32.7805 25.878V27.2439H31.4146V25.878H32.7805ZM31.4146 24.5122V25.878H30.0488V24.5122H31.4146ZM32.7805 24.5122V25.878H31.4146V24.5122H32.7805ZM34.1463 32.7073V34.0732H32.7805V32.7073H34.1463ZM34.1463 34.0732V35.439H32.7805V34.0732H34.1463ZM34.1463 35.439V36.8049H32.7805V35.439H34.1463ZM34.1463 36.8049V38.1707H32.7805V36.8049H34.1463ZM34.1463 38.1707V39.5366H32.7805V38.1707H34.1463ZM34.1463 39.5366V40.9024H32.7805V39.5366H34.1463ZM34.1463 40.9024V42.2683H32.7805V40.9024H34.1463ZM34.1463 42.2683V43.6341H32.7805V42.2683H34.1463ZM19.122 27.2439V28.6098H17.7561V27.2439H19.122ZM19.122 25.878V27.2439H17.7561V25.878H19.122ZM19.122 24.5122V25.878H17.7561V24.5122H19.122ZM19.122 23.1463V24.5122H17.7561V23.1463H19.122ZM19.122 21.7805V23.1463H17.7561V21.7805H19.122ZM19.122 20.4146V21.7805H17.7561V20.4146H19.122ZM19.122 28.6098V29.9756H17.7561V28.6098H19.122ZM21.8537 19.0488V20.4146H20.4878V19.0488H21.8537ZM23.2195 17.6829V19.0488H21.8537V17.6829H23.2195ZM24.5854 16.3171V17.6829H23.2195V16.3171H24.5854ZM25.9512 14.9512V16.3171H24.5854V14.9512H25.9512ZM17.7561 19.0488V20.4146H16.3902V19.0488H17.7561ZM16.3902 17.6829V19.0488H15.0244V17.6829H16.3902ZM15.0244 16.3171V17.6829H13.6585V16.3171H15.0244ZM13.6585 14.9512V16.3171H12.2927V14.9512H13.6585ZM21.8537 27.2439V28.6098H20.4878V27.2439H21.8537ZM23.2195 25.878V27.2439H21.8537V25.878H23.2195ZM24.5854 24.5122V25.878H23.2195V24.5122H24.5854ZM25.9512 23.1463V24.5122H24.5854V23.1463H25.9512ZM17.7561 27.2439V28.6098H16.3902V27.2439H17.7561ZM16.3902 25.878V27.2439H15.0244V25.878H16.3902ZM15.0244 24.5122V25.878H13.6585V24.5122H15.0244ZM13.6585 23.1463V24.5122H12.2927V23.1463H13.6585ZM10.9268 12.2195V13.5854H9.56098V12.2195H10.9268ZM12.2927 13.5854V14.9512H10.9268V13.5854H12.2927ZM27.3171 13.5854V14.9512H25.9512V13.5854H27.3171ZM28.6829 12.2195V13.5854H27.3171V12.2195H28.6829ZM12.2927 17.6829V19.0488H10.9268V17.6829H12.2927ZM12.2927 21.7805V23.1463H10.9268V21.7805H12.2927ZM12.2927 20.4146V21.7805H10.9268V20.4146H12.2927ZM10.9268 20.4146V21.7805H9.56098V20.4146H10.9268ZM27.3171 21.7805V23.1463H25.9512V21.7805H27.3171ZM28.6829 20.4146V21.7805H27.3171V20.4146H28.6829ZM28.6829 19.0488V20.4146H27.3171V19.0488H28.6829ZM28.6829 17.6829V19.0488H27.3171V17.6829H28.6829ZM28.6829 16.3171V17.6829H27.3171V16.3171H28.6829ZM28.6829 14.9512V16.3171H27.3171V14.9512H28.6829ZM28.6829 13.5854V14.9512H27.3171V13.5854H28.6829ZM27.3171 14.9512V16.3171H25.9512V14.9512H27.3171ZM27.3171 16.3171V17.6829H25.9512V16.3171H27.3171ZM27.3171 17.6829V19.0488H25.9512V17.6829H27.3171ZM27.3171 19.0488V20.4146H25.9512V19.0488H27.3171ZM27.3171 20.4146V21.7805H25.9512V20.4146H27.3171ZM25.9512 16.3171V17.6829H24.5854V16.3171H25.9512ZM25.9512 17.6829V19.0488H24.5854V17.6829H25.9512ZM25.9512 19.0488V20.4146H24.5854V19.0488H25.9512ZM25.9512 20.4146V21.7805H24.5854V20.4146H25.9512ZM25.9512 21.7805V23.1463H24.5854V21.7805H25.9512ZM24.5854 17.6829V19.0488H23.2195V17.6829H24.5854ZM24.5854 19.0488V20.4146H23.2195V19.0488H24.5854ZM24.5854 20.4146V21.7805H23.2195V20.4146H24.5854ZM24.5854 21.7805V23.1463H23.2195V21.7805H24.5854ZM24.5854 23.1463V24.5122H23.2195V23.1463H24.5854ZM23.2195 19.0488V20.4146H21.8537V19.0488H23.2195ZM23.2195 20.4146V21.7805H21.8537V20.4146H23.2195ZM23.2195 21.7805V23.1463H21.8537V21.7805H23.2195ZM23.2195 23.1463V24.5122H21.8537V23.1463H23.2195ZM23.2195 24.5122V25.878H21.8537V24.5122H23.2195ZM21.8537 20.4146V21.7805H20.4878V20.4146H21.8537ZM21.8537 21.7805V23.1463H20.4878V21.7805H21.8537ZM21.8537 23.1463V24.5122H20.4878V23.1463H21.8537ZM21.8537 24.5122V25.878H20.4878V24.5122H21.8537ZM21.8537 25.878V27.2439H20.4878V25.878H21.8537ZM17.7561 25.878V27.2439H16.3902V25.878H17.7561ZM17.7561 24.5122V25.878H16.3902V24.5122H17.7561ZM16.3902 24.5122V25.878H15.0244V24.5122H16.3902ZM16.3902 23.1463V24.5122H15.0244V23.1463H16.3902ZM15.0244 23.1463V24.5122H13.6585V23.1463H15.0244ZM15.0244 21.7805V23.1463H13.6585V21.7805H15.0244ZM13.6585 21.7805V23.1463H12.2927V21.7805H13.6585ZM13.6585 20.4146V21.7805H12.2927V20.4146H13.6585ZM12.2927 19.0488V20.4146H10.9268V19.0488H12.2927ZM10.9268 19.0488V20.4146H9.56098V19.0488H10.9268ZM10.9268 17.6829V19.0488H9.56098V17.6829H10.9268ZM10.9268 16.3171V17.6829H9.56098V16.3171H10.9268ZM10.9268 14.9512V16.3171H9.56098V14.9512H10.9268ZM10.9268 13.5854V14.9512H9.56098V13.5854H10.9268ZM12.2927 14.9512V16.3171H10.9268V14.9512H12.2927ZM12.2927 16.3171V17.6829H10.9268V16.3171H12.2927ZM13.6585 16.3171V17.6829H12.2927V16.3171H13.6585ZM13.6585 17.6829V19.0488H12.2927V17.6829H13.6585ZM15.0244 17.6829V19.0488H13.6585V17.6829H15.0244ZM15.0244 19.0488V20.4146H13.6585V19.0488H15.0244ZM16.3902 19.0488V20.4146H15.0244V19.0488H16.3902ZM16.3902 20.4146V21.7805H15.0244V20.4146H16.3902ZM17.7561 20.4146V21.7805H16.3902V20.4146H17.7561ZM17.7561 21.7805V23.1463H16.3902V21.7805H17.7561ZM17.7561 23.1463V24.5122H16.3902V23.1463H17.7561ZM16.3902 21.7805V23.1463H15.0244V21.7805H16.3902ZM15.0244 20.4146V21.7805H13.6585V20.4146H15.0244ZM13.6585 19.0488V20.4146H12.2927V19.0488H13.6585ZM20.4878 20.4146V21.7805H19.122V20.4146H20.4878ZM20.4878 21.7805V23.1463H19.122V21.7805H20.4878ZM20.4878 23.1463V24.5122H19.122V23.1463H20.4878ZM20.4878 24.5122V25.878H19.122V24.5122H20.4878ZM20.4878 25.878V27.2439H19.122V25.878H20.4878ZM20.4878 27.2439V28.6098H19.122V27.2439H20.4878ZM20.4878 28.6098V29.9756H19.122V28.6098H20.4878ZM45.0558 36.8049V35.439H46.4217V36.8049H45.0558ZM43.69 36.8049V35.439H45.0558V36.8049H43.69ZM42.3241 36.8049V35.439H43.69V36.8049H42.3241ZM40.9583 36.8049V35.439H42.3241V36.8049H40.9583ZM39.5924 36.8049V35.439H40.9583V36.8049H39.5924ZM39.5924 38.1707V36.8049H40.9583V38.1707H39.5924ZM39.5924 39.5366V38.1707H40.9583V39.5366H39.5924ZM40.9583 39.5366V38.1707H42.3241V39.5366H40.9583ZM42.3241 39.5366V38.1707H43.69V39.5366H42.3241ZM43.69 39.5366V38.1707H45.0558V39.5366H43.69ZM43.69 38.1707V36.8049H45.0558V38.1707H43.69ZM45.0558 38.1707V36.8049H46.4217V38.1707H45.0558ZM42.3241 38.1707V36.8049H43.69V38.1707H42.3241ZM40.9583 38.1707V36.8049H42.3241V38.1707H40.9583ZM45.0558 39.5366V38.1707H46.4217V39.5366H45.0558ZM46.4217 39.5366V38.1707H47.7875V39.5366H46.4217ZM46.4217 40.9024V39.5366H47.7875V40.9024H46.4217ZM45.0558 40.9024V39.5366H46.4217V40.9024H45.0558ZM43.69 40.9024V39.5366H45.0558V40.9024H43.69ZM42.3241 40.9024V39.5366H43.69V40.9024H42.3241ZM40.9583 40.9024V39.5366H42.3241V40.9024H40.9583ZM40.9583 42.2683V40.9024H42.3241V42.2683H40.9583ZM42.3241 42.2683V40.9024H43.69V42.2683H42.3241ZM43.69 42.2683V40.9024H45.0558V42.2683H43.69ZM45.0558 42.2683V40.9024H46.4217V42.2683H45.0558ZM46.4217 42.2683V40.9024H47.7875V42.2683H46.4217ZM43.69 43.6341V42.2683H45.0558V43.6341H43.69ZM42.3241 43.6341V42.2683H43.69V43.6341H42.3241ZM45.0558 43.6341V42.2683H46.4217V43.6341H45.0558ZM45.0558 45V43.6341H46.4217V45H45.0558ZM46.4217 45V43.6341H47.7875V45H46.4217ZM46.4217 43.6341V42.2683H47.7875V43.6341H46.4217ZM47.7875 43.6341V42.2683H49.1534V43.6341H47.7875ZM47.7875 45V43.6341H49.1534V45H47.7875ZM47.7875 42.2683V40.9024H49.1534V42.2683H47.7875ZM49.1534 42.2683V40.9024H50.5192V42.2683H49.1534ZM49.1534 40.9024V39.5366H50.5192V40.9024H49.1534ZM47.7875 40.9024V39.5366H49.1534V40.9024H47.7875ZM50.5192 40.9024V39.5366H51.8851V40.9024H50.5192ZM50.5192 42.2683V40.9024H51.8851V42.2683H50.5192ZM50.5192 43.6341V42.2683H51.8851V43.6341H50.5192ZM50.5192 45V43.6341H51.8851V45H50.5192ZM49.1534 45V43.6341H50.5192V45H49.1534ZM49.1534 43.6341V42.2683H50.5192V43.6341H49.1534ZM51.8851 45V43.6341H53.251V45H51.8851ZM54.6168 43.6341V42.2683H55.9827V43.6341H54.6168ZM54.6168 42.2683V40.9024H55.9827V42.2683H54.6168ZM54.6168 40.9024V39.5366H55.9827V40.9024H54.6168ZM53.251 40.9024V39.5366H54.6168V40.9024H53.251ZM51.8851 40.9024V39.5366H53.251V40.9024H51.8851ZM51.8851 42.2683V40.9024H53.251V42.2683H51.8851ZM51.8851 43.6341V42.2683H53.251V43.6341H51.8851ZM53.251 43.6341V42.2683H54.6168V43.6341H53.251ZM53.251 42.2683V40.9024H54.6168V42.2683H53.251ZM55.9827 42.2683V40.9024H57.3485V42.2683H55.9827ZM55.9827 43.6341V42.2683H57.3485V43.6341H55.9827ZM57.3485 43.6341V42.2683H58.7144V43.6341H57.3485ZM57.3485 42.2683V40.9024H58.7144V42.2683H57.3485ZM58.7144 42.2683V40.9024H60.0802V42.2683H58.7144ZM58.7144 40.9024V39.5366H60.0802V40.9024H58.7144ZM58.7144 39.5366V38.1707H60.0802V39.5366H58.7144ZM57.3485 39.5366V38.1707H58.7144V39.5366H57.3485ZM57.3485 40.9024V39.5366H58.7144V40.9024H57.3485ZM55.9827 40.9024V39.5366H57.3485V40.9024H55.9827ZM55.9827 39.5366V38.1707H57.3485V39.5366H55.9827ZM54.6168 39.5366V38.1707H55.9827V39.5366H54.6168ZM60.0802 39.5366V38.1707H61.4461V39.5366H60.0802ZM60.0802 38.1707V36.8049H61.4461V38.1707H60.0802ZM60.0802 36.8049V35.439H61.4461V36.8049H60.0802ZM60.0802 35.439V34.0732H61.4461V35.439H60.0802ZM60.0802 34.0732V32.7073H61.4461V34.0732H60.0802ZM60.0802 32.7073V31.3415H61.4461V32.7073H60.0802ZM60.0802 31.3415V29.9756H61.4461V31.3415H60.0802ZM60.0802 29.9756V28.6098H61.4461V29.9756H60.0802ZM60.0802 28.6098V27.2439H61.4461V28.6098H60.0802ZM60.0802 27.2439V25.878H61.4461V27.2439H60.0802ZM58.7144 27.2439V25.878H60.0802V27.2439H58.7144ZM58.7144 25.878V24.5122H60.0802V25.878H58.7144ZM60.0802 25.878V24.5122H61.4461V25.878H60.0802ZM57.3485 25.878V24.5122H58.7144V25.878H57.3485ZM55.9827 25.878V24.5122H57.3485V25.878H55.9827ZM54.6168 25.878V24.5122H55.9827V25.878H54.6168ZM53.251 25.878V24.5122H54.6168V25.878H53.251ZM54.6168 27.2439V25.878H55.9827V27.2439H54.6168ZM54.6168 28.6098V27.2439H55.9827V28.6098H54.6168ZM54.6168 29.9756V28.6098H55.9827V29.9756H54.6168ZM54.6168 31.3415V29.9756H55.9827V31.3415H54.6168ZM54.6168 32.7073V31.3415H55.9827V32.7073H54.6168ZM54.6168 34.0732V32.7073H55.9827V34.0732H54.6168ZM54.6168 35.439V34.0732H55.9827V35.439H54.6168ZM54.6168 36.8049V35.439H55.9827V36.8049H54.6168ZM54.6168 38.1707V36.8049H55.9827V38.1707H54.6168ZM55.9827 38.1707V36.8049H57.3485V38.1707H55.9827ZM57.3485 38.1707V36.8049H58.7144V38.1707H57.3485ZM58.7144 38.1707V36.8049H60.0802V38.1707H58.7144ZM58.7144 36.8049V35.439H60.0802V36.8049H58.7144ZM58.7144 35.439V34.0732H60.0802V35.439H58.7144ZM58.7144 34.0732V32.7073H60.0802V34.0732H58.7144ZM58.7144 32.7073V31.3415H60.0802V32.7073H58.7144ZM58.7144 31.3415V29.9756H60.0802V31.3415H58.7144ZM58.7144 29.9756V28.6098H60.0802V29.9756H58.7144ZM58.7144 28.6098V27.2439H60.0802V28.6098H58.7144ZM57.3485 27.2439V25.878H58.7144V27.2439H57.3485ZM55.9827 27.2439V25.878H57.3485V27.2439H55.9827ZM55.9827 28.6098V27.2439H57.3485V28.6098H55.9827ZM55.9827 29.9756V28.6098H57.3485V29.9756H55.9827ZM55.9827 31.3415V29.9756H57.3485V31.3415H55.9827ZM55.9827 32.7073V31.3415H57.3485V32.7073H55.9827ZM57.3485 32.7073V31.3415H58.7144V32.7073H57.3485ZM57.3485 34.0732V32.7073H58.7144V34.0732H57.3485ZM57.3485 35.439V34.0732H58.7144V35.439H57.3485ZM57.3485 36.8049V35.439H58.7144V36.8049H57.3485ZM55.9827 36.8049V35.439H57.3485V36.8049H55.9827ZM55.9827 35.439V34.0732H57.3485V35.439H55.9827ZM55.9827 34.0732V32.7073H57.3485V34.0732H55.9827ZM57.3485 29.9756V28.6098H58.7144V29.9756H57.3485ZM57.3485 28.6098V27.2439H58.7144V28.6098H57.3485ZM57.3485 31.3415V29.9756H58.7144V31.3415H57.3485ZM45.0558 27.2439V25.878H46.4217V27.2439H45.0558ZM43.69 27.2439V25.878H45.0558V27.2439H43.69ZM42.3241 27.2439V25.878H43.69V27.2439H42.3241ZM40.9583 27.2439V25.878H42.3241V27.2439H40.9583ZM39.5924 27.2439V25.878H40.9583V27.2439H39.5924ZM39.5924 25.878V24.5122H40.9583V25.878H39.5924ZM40.9583 25.878V24.5122H42.3241V25.878H40.9583ZM42.3241 25.878V24.5122H43.69V25.878H42.3241ZM43.69 25.878V24.5122H45.0558V25.878H43.69ZM45.0558 25.878V24.5122H46.4217V25.878H45.0558ZM46.4217 25.878V24.5122H47.7875V25.878H46.4217ZM46.4217 24.5122V23.1463H47.7875V24.5122H46.4217ZM45.0558 24.5122V23.1463H46.4217V24.5122H45.0558ZM43.69 24.5122V23.1463H45.0558V24.5122H43.69ZM42.3241 24.5122V23.1463H43.69V24.5122H42.3241ZM42.3241 23.1463V21.7805H43.69V23.1463H42.3241ZM40.9583 23.1463V21.7805H42.3241V23.1463H40.9583ZM40.9583 24.5122V23.1463H42.3241V24.5122H40.9583ZM42.3241 21.7805V20.4146H43.69V21.7805H42.3241ZM43.69 21.7805V20.4146H45.0558V21.7805H43.69ZM43.69 23.1463V21.7805H45.0558V23.1463H43.69ZM45.0558 23.1463V21.7805H46.4217V23.1463H45.0558ZM45.0558 21.7805V20.4146H46.4217V21.7805H45.0558ZM45.0558 20.4146V19.0488H46.4217V20.4146H45.0558ZM46.4217 20.4146V19.0488H47.7875V20.4146H46.4217ZM47.7875 20.4146V19.0488H49.1534V20.4146H47.7875ZM49.1534 20.4146V19.0488H50.5192V20.4146H49.1534ZM50.5192 20.4146V19.0488H51.8851V20.4146H50.5192ZM51.8851 20.4146V19.0488H53.251V20.4146H51.8851ZM53.251 20.4146V19.0488H54.6168V20.4146H53.251ZM54.6168 20.4146V19.0488H55.9827V20.4146H54.6168ZM53.251 21.7805V20.4146H54.6168V21.7805H53.251ZM51.8851 21.7805V20.4146H53.251V21.7805H51.8851ZM50.5192 21.7805V20.4146H51.8851V21.7805H50.5192ZM49.1534 21.7805V20.4146H50.5192V21.7805H49.1534ZM47.7875 21.7805V20.4146H49.1534V21.7805H47.7875ZM46.4217 21.7805V20.4146H47.7875V21.7805H46.4217ZM46.4217 23.1463V21.7805H47.7875V23.1463H46.4217ZM47.7875 23.1463V21.7805H49.1534V23.1463H47.7875ZM49.1534 23.1463V21.7805H50.5192V23.1463H49.1534ZM50.5192 23.1463V21.7805H51.8851V23.1463H50.5192ZM51.8851 23.1463V21.7805H53.251V23.1463H51.8851ZM53.251 23.1463V21.7805H54.6168V23.1463H53.251ZM54.6168 21.7805V20.4146H55.9827V21.7805H54.6168ZM55.9827 21.7805V20.4146H57.3485V21.7805H55.9827ZM57.3485 21.7805V20.4146H58.7144V21.7805H57.3485ZM57.3485 23.1463V21.7805H58.7144V23.1463H57.3485ZM58.7144 23.1463V21.7805H60.0802V23.1463H58.7144ZM58.7144 24.5122V23.1463H60.0802V24.5122H58.7144ZM57.3485 24.5122V23.1463H58.7144V24.5122H57.3485ZM55.9827 24.5122V23.1463H57.3485V24.5122H55.9827ZM54.6168 24.5122V23.1463H55.9827V24.5122H54.6168ZM53.251 24.5122V23.1463H54.6168V24.5122H53.251ZM51.8851 24.5122V23.1463H53.251V24.5122H51.8851ZM50.5192 24.5122V23.1463H51.8851V24.5122H50.5192ZM49.1534 24.5122V23.1463H50.5192V24.5122H49.1534ZM47.7875 24.5122V23.1463H49.1534V24.5122H47.7875ZM54.6168 23.1463V21.7805H55.9827V23.1463H54.6168ZM55.9827 23.1463V21.7805H57.3485V23.1463H55.9827ZM40.9583 35.439V34.0732H42.3241V35.439H40.9583ZM42.3241 35.439V34.0732H43.69V35.439H42.3241ZM43.69 35.439V34.0732H45.0558V35.439H43.69ZM45.0558 35.439V34.0732H46.4217V35.439H45.0558ZM42.3241 34.0732V32.7073H43.69V34.0732H42.3241ZM43.69 34.0732V32.7073H45.0558V34.0732H43.69ZM46.4217 34.0732V32.7073H47.7875V34.0732H46.4217ZM47.7875 34.0732V32.7073H49.1534V34.0732H47.7875ZM49.1534 34.0732V32.7073H50.5192V34.0732H49.1534ZM50.5192 34.0732V32.7073H51.8851V34.0732H50.5192ZM51.8851 34.0732V32.7073H53.251V34.0732H51.8851ZM53.251 34.0732V32.7073H54.6168V34.0732H53.251ZM45.0558 34.0732V32.7073H46.4217V34.0732H45.0558ZM40.9583 34.0732V32.7073H42.3241V34.0732H40.9583ZM42.3241 32.7073V31.3415H43.69V32.7073H42.3241ZM43.69 32.7073V31.3415H45.0558V32.7073H43.69ZM45.0558 32.7073V31.3415H46.4217V32.7073H45.0558ZM46.4217 32.7073V31.3415H47.7875V32.7073H46.4217ZM47.7875 32.7073V31.3415H49.1534V32.7073H47.7875ZM49.1534 32.7073V31.3415H50.5192V32.7073H49.1534ZM50.5192 32.7073V31.3415H51.8851V32.7073H50.5192ZM51.8851 32.7073V31.3415H53.251V32.7073H51.8851ZM53.251 32.7073V31.3415H54.6168V32.7073H53.251ZM53.251 31.3415V29.9756H54.6168V31.3415H53.251ZM51.8851 31.3415V29.9756H53.251V31.3415H51.8851ZM50.5192 31.3415V29.9756H51.8851V31.3415H50.5192ZM47.7875 31.3415V29.9756H49.1534V31.3415H47.7875ZM46.4217 31.3415V29.9756H47.7875V31.3415H46.4217ZM45.0558 31.3415V29.9756H46.4217V31.3415H45.0558ZM49.1534 31.3415V29.9756H50.5192V31.3415H49.1534ZM61.4461 39.5366V40.9024H60.0802V39.5366H61.4461ZM61.4461 40.9024V42.2683H60.0802V40.9024H61.4461ZM61.4461 42.2683V43.6341H60.0802V42.2683H61.4461ZM61.4461 43.6341V45H60.0802V43.6341H61.4461ZM60.0802 43.6341V45H58.7144V43.6341H60.0802ZM60.0802 42.2683V43.6341H58.7144V42.2683H60.0802ZM58.7144 43.6341V45H57.3485V43.6341H58.7144ZM57.3485 43.6341V45H55.9827V43.6341H57.3485ZM55.9827 43.6341V45H54.6168V43.6341H55.9827ZM54.6168 38.1707V39.5366H53.251V38.1707H54.6168ZM45.0558 43.6341V45H43.69V43.6341H45.0558ZM47.7875 34.0732V35.439H46.4217V34.0732H47.7875ZM68.3007 43.6341V45H66.9348V43.6341H68.3007ZM68.3007 42.2683V43.6341H66.9348V42.2683H68.3007ZM68.3007 40.9024V42.2683H66.9348V40.9024H68.3007ZM68.3007 39.5366V40.9024H66.9348V39.5366H68.3007ZM68.3007 38.1707V39.5366H66.9348V38.1707H68.3007ZM68.3007 36.8049V38.1707H66.9348V36.8049H68.3007ZM68.3007 35.439V36.8049H66.9348V35.439H68.3007ZM68.3007 34.0732V35.439H66.9348V34.0732H68.3007ZM68.3007 32.7073V34.0732H66.9348V32.7073H68.3007ZM68.3007 31.3415V32.7073H66.9348V31.3415H68.3007ZM68.3007 29.9756V31.3415H66.9348V29.9756H68.3007ZM68.3007 28.6098V29.9756H66.9348V28.6098H68.3007ZM68.3007 27.2439V28.6098H66.9348V27.2439H68.3007ZM68.3007 25.878V27.2439H66.9348V25.878H68.3007ZM68.3007 24.5122V25.878H66.9348V24.5122H68.3007ZM69.6665 24.5122V25.878H68.3007V24.5122H69.6665ZM69.6665 25.878V27.2439H68.3007V25.878H69.6665ZM69.6665 27.2439V28.6098H68.3007V27.2439H69.6665ZM69.6665 28.6098V29.9756H68.3007V28.6098H69.6665ZM69.6665 29.9756V31.3415H68.3007V29.9756H69.6665ZM69.6665 31.3415V32.7073H68.3007V31.3415H69.6665ZM69.6665 32.7073V34.0732H68.3007V32.7073H69.6665ZM71.0324 34.0732V35.439H69.6665V34.0732H71.0324ZM71.0324 35.439V36.8049H69.6665V35.439H71.0324ZM71.0324 36.8049V38.1707H69.6665V36.8049H71.0324ZM71.0324 38.1707V39.5366H69.6665V38.1707H71.0324ZM71.0324 39.5366V40.9024H69.6665V39.5366H71.0324ZM71.0324 40.9024V42.2683H69.6665V40.9024H71.0324ZM71.0324 42.2683V43.6341H69.6665V42.2683H71.0324ZM71.0324 43.6341V45H69.6665V43.6341H71.0324ZM72.3982 43.6341V45H71.0324V43.6341H72.3982ZM73.7641 43.6341V45H72.3982V43.6341H73.7641ZM73.7641 42.2683V43.6341H72.3982V42.2683H73.7641ZM73.7641 40.9024V42.2683H72.3982V40.9024H73.7641ZM73.7641 39.5366V40.9024H72.3982V39.5366H73.7641ZM73.7641 38.1707V39.5366H72.3982V38.1707H73.7641ZM73.7641 36.8049V38.1707H72.3982V36.8049H73.7641ZM73.7641 35.439V36.8049H72.3982V35.439H73.7641ZM73.7641 34.0732V35.439H72.3982V34.0732H73.7641ZM72.3982 34.0732V35.439H71.0324V34.0732H72.3982ZM72.3982 32.7073V34.0732H71.0324V32.7073H72.3982ZM72.3982 35.439V36.8049H71.0324V35.439H72.3982ZM72.3982 36.8049V38.1707H71.0324V36.8049H72.3982ZM72.3982 38.1707V39.5366H71.0324V38.1707H72.3982ZM72.3982 39.5366V40.9024H71.0324V39.5366H72.3982ZM72.3982 40.9024V42.2683H71.0324V40.9024H72.3982ZM72.3982 42.2683V43.6341H71.0324V42.2683H72.3982ZM69.6665 43.6341V45H68.3007V43.6341H69.6665ZM69.6665 42.2683V43.6341H68.3007V42.2683H69.6665ZM69.6665 40.9024V42.2683H68.3007V40.9024H69.6665ZM69.6665 39.5366V40.9024H68.3007V39.5366H69.6665ZM69.6665 38.1707V39.5366H68.3007V38.1707H69.6665ZM69.6665 36.8049V38.1707H68.3007V36.8049H69.6665ZM69.6665 35.439V36.8049H68.3007V35.439H69.6665ZM69.6665 34.0732V35.439H68.3007V34.0732H69.6665ZM68.3007 19.0488V20.4146H66.9348V19.0488H68.3007ZM68.3007 20.4146V21.7805H66.9348V20.4146H68.3007ZM68.3007 21.7805V23.1463H66.9348V21.7805H68.3007ZM68.3007 23.1463V24.5122H66.9348V23.1463H68.3007ZM72.3982 20.4146V21.7805H71.0324V20.4146H72.3982ZM72.3982 21.7805V23.1463H71.0324V21.7805H72.3982ZM72.3982 23.1463V24.5122H71.0324V23.1463H72.3982ZM72.3982 24.5122V25.878H71.0324V24.5122H72.3982ZM72.3982 25.878V27.2439H71.0324V25.878H72.3982ZM72.3982 27.2439V28.6098H71.0324V27.2439H72.3982ZM72.3982 28.6098V29.9756H71.0324V28.6098H72.3982ZM73.7641 29.9756V31.3415H72.3982V29.9756H73.7641ZM73.7641 31.3415V32.7073H72.3982V31.3415H73.7641ZM73.7641 32.7073V34.0732H72.3982V32.7073H73.7641ZM73.7641 28.6098V29.9756H72.3982V28.6098H73.7641ZM73.7641 27.2439V28.6098H72.3982V27.2439H73.7641ZM73.7641 25.878V27.2439H72.3982V25.878H73.7641ZM73.7641 24.5122V25.878H72.3982V24.5122H73.7641ZM73.7641 23.1463V24.5122H72.3982V23.1463H73.7641ZM73.7641 21.7805V23.1463H72.3982V21.7805H73.7641ZM73.7641 20.4146V21.7805H72.3982V20.4146H73.7641ZM73.7641 19.0488V20.4146H72.3982V19.0488H73.7641ZM72.3982 19.0488V20.4146H71.0324V19.0488H72.3982ZM71.0324 19.0488V20.4146H69.6665V19.0488H71.0324ZM71.0324 20.4146V21.7805H69.6665V20.4146H71.0324ZM69.6665 21.7805V23.1463H68.3007V21.7805H69.6665ZM69.6665 23.1463V24.5122H68.3007V23.1463H69.6665ZM69.6665 20.4146V21.7805H68.3007V20.4146H69.6665ZM69.6665 19.0488V20.4146H68.3007V19.0488H69.6665ZM71.0324 21.7805V23.1463H69.6665V21.7805H71.0324ZM71.0324 23.1463V24.5122H69.6665V23.1463H71.0324ZM71.0324 24.5122V25.878H69.6665V24.5122H71.0324ZM71.0324 25.878V27.2439H69.6665V25.878H71.0324ZM71.0324 27.2439V28.6098H69.6665V27.2439H71.0324ZM71.0324 28.6098V29.9756H69.6665V28.6098H71.0324ZM71.0324 29.9756V31.3415H69.6665V29.9756H71.0324ZM71.0324 31.3415V32.7073H69.6665V31.3415H71.0324ZM71.0324 32.7073V34.0732H69.6665V32.7073H71.0324ZM72.3982 31.3415V32.7073H71.0324V31.3415H72.3982ZM72.3982 29.9756V31.3415H71.0324V29.9756H72.3982ZM83.3251 24.5122V25.878H81.9592V24.5122H83.3251ZM83.3251 19.0488V20.4146H81.9592V19.0488H83.3251ZM83.3251 20.4146V21.7805H81.9592V20.4146H83.3251ZM84.6909 20.4146V21.7805H83.3251V20.4146H84.6909ZM86.0568 21.7805V23.1463H84.6909V21.7805H86.0568ZM84.6909 23.1463V24.5122H83.3251V23.1463H84.6909ZM84.6909 21.7805V23.1463H83.3251V21.7805H84.6909ZM83.3251 21.7805V23.1463H81.9592V21.7805H83.3251ZM81.9592 21.7805V23.1463H80.5934V21.7805H81.9592ZM81.9592 23.1463V24.5122H80.5934V23.1463H81.9592ZM83.3251 23.1463V24.5122H81.9592V23.1463H83.3251ZM81.9592 24.5122V25.878H80.5934V24.5122H81.9592ZM80.5934 23.1463V24.5122H79.2275V23.1463H80.5934ZM80.5934 21.7805V23.1463H79.2275V21.7805H80.5934ZM80.5934 20.4146V21.7805H79.2275V20.4146H80.5934ZM80.5934 19.0488V20.4146H79.2275V19.0488H80.5934ZM81.9592 19.0488V20.4146H80.5934V19.0488H81.9592ZM81.9592 20.4146V21.7805H80.5934V20.4146H81.9592ZM79.2275 19.0488V20.4146H77.8617V19.0488H79.2275ZM79.2275 20.4146V21.7805H77.8617V20.4146H79.2275ZM79.2275 21.7805V23.1463H77.8617V21.7805H79.2275ZM79.2275 23.1463V24.5122H77.8617V23.1463H79.2275ZM77.8617 19.0488V20.4146H76.4958V19.0488H77.8617ZM77.8617 20.4146V21.7805H76.4958V20.4146H77.8617ZM76.4958 20.4146V21.7805H75.13V20.4146H76.4958ZM76.4958 21.7805V23.1463H75.13V21.7805H76.4958ZM75.13 21.7805V23.1463H73.7641V21.7805H75.13ZM75.13 23.1463V24.5122H73.7641V23.1463H75.13ZM76.4958 23.1463V24.5122H75.13V23.1463H76.4958ZM77.8617 23.1463V24.5122H76.4958V23.1463H77.8617ZM77.8617 21.7805V23.1463H76.4958V21.7805H77.8617ZM75.13 24.5122V25.878H73.7641V24.5122H75.13ZM76.4958 19.0488V20.4146H75.13V19.0488H76.4958ZM75.13 20.4146V21.7805H73.7641V20.4146H75.13ZM80.5934 24.5122V25.878H79.2275V24.5122H80.5934ZM81.9592 25.878V27.2439H80.5934V25.878H81.9592Z" fill="white"/>
<path d="M90.1757 43.6341V45H88.8098V43.6341H90.1757ZM90.1757 42.2683V43.6341H88.8098V42.2683H90.1757ZM90.1757 40.9024V42.2683H88.8098V40.9024H90.1757ZM90.1757 39.5366V40.9024H88.8098V39.5366H90.1757ZM90.1757 38.1707V39.5366H88.8098V38.1707H90.1757ZM90.1757 36.8049V38.1707H88.8098V36.8049H90.1757ZM90.1757 35.439V36.8049H88.8098V35.439H90.1757ZM90.1757 34.0732V35.439H88.8098V34.0732H90.1757ZM90.1757 32.7073V34.0732H88.8098V32.7073H90.1757ZM90.1757 31.3415V32.7073H88.8098V31.3415H90.1757ZM90.1757 29.9756V31.3415H88.8098V29.9756H90.1757ZM90.1757 28.6098V29.9756H88.8098V28.6098H90.1757ZM90.1757 27.2439V28.6098H88.8098V27.2439H90.1757ZM90.1757 25.878V27.2439H88.8098V25.878H90.1757ZM90.1757 24.5122V25.878H88.8098V24.5122H90.1757ZM91.5415 24.5122V25.878H90.1757V24.5122H91.5415ZM91.5415 25.878V27.2439H90.1757V25.878H91.5415ZM91.5415 27.2439V28.6098H90.1757V27.2439H91.5415ZM91.5415 28.6098V29.9756H90.1757V28.6098H91.5415ZM91.5415 29.9756V31.3415H90.1757V29.9756H91.5415ZM91.5415 31.3415V32.7073H90.1757V31.3415H91.5415ZM91.5415 32.7073V34.0732H90.1757V32.7073H91.5415ZM92.9074 34.0732V35.439H91.5415V34.0732H92.9074ZM92.9074 35.439V36.8049H91.5415V35.439H92.9074ZM92.9074 36.8049V38.1707H91.5415V36.8049H92.9074ZM92.9074 38.1707V39.5366H91.5415V38.1707H92.9074ZM92.9074 39.5366V40.9024H91.5415V39.5366H92.9074ZM92.9074 40.9024V42.2683H91.5415V40.9024H92.9074ZM92.9074 42.2683V43.6341H91.5415V42.2683H92.9074ZM92.9074 43.6341V45H91.5415V43.6341H92.9074ZM94.2732 43.6341V45H92.9074V43.6341H94.2732ZM95.6391 43.6341V45H94.2732V43.6341H95.6391ZM95.6391 42.2683V43.6341H94.2732V42.2683H95.6391ZM95.6391 40.9024V42.2683H94.2732V40.9024H95.6391ZM95.6391 39.5366V40.9024H94.2732V39.5366H95.6391ZM95.6391 38.1707V39.5366H94.2732V38.1707H95.6391ZM95.6391 36.8049V38.1707H94.2732V36.8049H95.6391ZM95.6391 35.439V36.8049H94.2732V35.439H95.6391ZM95.6391 34.0732V35.439H94.2732V34.0732H95.6391ZM94.2732 34.0732V35.439H92.9074V34.0732H94.2732ZM94.2732 32.7073V34.0732H92.9074V32.7073H94.2732ZM94.2732 35.439V36.8049H92.9074V35.439H94.2732ZM94.2732 36.8049V38.1707H92.9074V36.8049H94.2732ZM94.2732 38.1707V39.5366H92.9074V38.1707H94.2732ZM94.2732 39.5366V40.9024H92.9074V39.5366H94.2732ZM94.2732 40.9024V42.2683H92.9074V40.9024H94.2732ZM94.2732 42.2683V43.6341H92.9074V42.2683H94.2732ZM91.5415 43.6341V45H90.1757V43.6341H91.5415ZM91.5415 42.2683V43.6341H90.1757V42.2683H91.5415ZM91.5415 40.9024V42.2683H90.1757V40.9024H91.5415ZM91.5415 39.5366V40.9024H90.1757V39.5366H91.5415ZM91.5415 38.1707V39.5366H90.1757V38.1707H91.5415ZM91.5415 36.8049V38.1707H90.1757V36.8049H91.5415ZM91.5415 35.439V36.8049H90.1757V35.439H91.5415ZM91.5415 34.0732V35.439H90.1757V34.0732H91.5415ZM90.1757 10.8537V12.2195H88.8098V10.8537H90.1757ZM90.1757 12.2195V13.5854H88.8098V12.2195H90.1757ZM90.1757 13.5854V14.9512H88.8098V13.5854H90.1757ZM90.1757 14.9512V16.3171H88.8098V14.9512H90.1757ZM90.1757 16.3171V17.6829H88.8098V16.3171H90.1757ZM90.1757 17.6829V19.0488H88.8098V17.6829H90.1757ZM90.1757 19.0488V20.4146H88.8098V19.0488H90.1757ZM90.1757 20.4146V21.7805H88.8098V20.4146H90.1757ZM90.1757 21.7805V23.1463H88.8098V21.7805H90.1757ZM90.1757 23.1463V24.5122H88.8098V23.1463H90.1757ZM94.2732 10.8537V12.2195H92.9074V10.8537H94.2732ZM94.2732 12.2195V13.5854H92.9074V12.2195H94.2732ZM94.2732 13.5854V14.9512H92.9074V13.5854H94.2732ZM94.2732 14.9512V16.3171H92.9074V14.9512H94.2732ZM94.2732 16.3171V17.6829H92.9074V16.3171H94.2732ZM94.2732 17.6829V19.0488H92.9074V17.6829H94.2732ZM94.2732 20.4146V21.7805H92.9074V20.4146H94.2732ZM94.2732 21.7805V23.1463H92.9074V21.7805H94.2732ZM94.2732 23.1463V24.5122H92.9074V23.1463H94.2732ZM94.2732 24.5122V25.878H92.9074V24.5122H94.2732ZM94.2732 25.878V27.2439H92.9074V25.878H94.2732ZM94.2732 27.2439V28.6098H92.9074V27.2439H94.2732ZM94.2732 28.6098V29.9756H92.9074V28.6098H94.2732ZM95.6391 29.9756V31.3415H94.2732V29.9756H95.6391ZM95.6391 31.3415V32.7073H94.2732V31.3415H95.6391ZM95.6391 32.7073V34.0732H94.2732V32.7073H95.6391ZM95.6391 28.6098V29.9756H94.2732V28.6098H95.6391ZM95.6391 27.2439V28.6098H94.2732V27.2439H95.6391ZM95.6391 25.878V27.2439H94.2732V25.878H95.6391ZM95.6391 24.5122V25.878H94.2732V24.5122H95.6391ZM95.6391 23.1463V24.5122H94.2732V23.1463H95.6391ZM95.6391 21.7805V23.1463H94.2732V21.7805H95.6391ZM95.6391 20.4146V21.7805H94.2732V20.4146H95.6391ZM95.6391 19.0488V20.4146H94.2732V19.0488H95.6391ZM95.6391 17.6829V19.0488H94.2732V17.6829H95.6391ZM95.6391 16.3171V17.6829H94.2732V16.3171H95.6391ZM94.2732 19.0488V20.4146H92.9074V19.0488H94.2732ZM95.6391 14.9512V16.3171H94.2732V14.9512H95.6391ZM95.6391 13.5854V14.9512H94.2732V13.5854H95.6391ZM95.6391 12.2195V13.5854H94.2732V12.2195H95.6391ZM95.6391 10.8537V12.2195H94.2732V10.8537H95.6391ZM92.9074 10.8537V12.2195H91.5415V10.8537H92.9074ZM91.5415 10.8537V12.2195H90.1757V10.8537H91.5415ZM91.5415 12.2195V13.5854H90.1757V12.2195H91.5415ZM92.9074 12.2195V13.5854H91.5415V12.2195H92.9074ZM92.9074 13.5854V14.9512H91.5415V13.5854H92.9074ZM92.9074 14.9512V16.3171H91.5415V14.9512H92.9074ZM92.9074 16.3171V17.6829H91.5415V16.3171H92.9074ZM92.9074 17.6829V19.0488H91.5415V17.6829H92.9074ZM92.9074 19.0488V20.4146H91.5415V19.0488H92.9074ZM92.9074 20.4146V21.7805H91.5415V20.4146H92.9074ZM91.5415 21.7805V23.1463H90.1757V21.7805H91.5415ZM91.5415 23.1463V24.5122H90.1757V23.1463H91.5415ZM91.5415 20.4146V21.7805H90.1757V20.4146H91.5415ZM91.5415 19.0488V20.4146H90.1757V19.0488H91.5415ZM91.5415 17.6829V19.0488H90.1757V17.6829H91.5415ZM91.5415 16.3171V17.6829H90.1757V16.3171H91.5415ZM91.5415 14.9512V16.3171H90.1757V14.9512H91.5415ZM91.5415 13.5854V14.9512H90.1757V13.5854H91.5415ZM92.9074 21.7805V23.1463H91.5415V21.7805H92.9074ZM92.9074 23.1463V24.5122H91.5415V23.1463H92.9074ZM92.9074 24.5122V25.878H91.5415V24.5122H92.9074ZM92.9074 25.878V27.2439H91.5415V25.878H92.9074ZM92.9074 27.2439V28.6098H91.5415V27.2439H92.9074ZM92.9074 28.6098V29.9756H91.5415V28.6098H92.9074ZM92.9074 29.9756V31.3415H91.5415V29.9756H92.9074ZM92.9074 31.3415V32.7073H91.5415V31.3415H92.9074ZM92.9074 32.7073V34.0732H91.5415V32.7073H92.9074ZM94.2732 31.3415V32.7073H92.9074V31.3415H94.2732ZM94.2732 29.9756V31.3415H92.9074V29.9756H94.2732ZM102.48 43.6341V45H101.115V43.6341H102.48ZM102.48 42.2683V43.6341H101.115V42.2683H102.48ZM102.48 40.9024V42.2683H101.115V40.9024H102.48ZM102.48 39.5366V40.9024H101.115V39.5366H102.48ZM102.48 38.1707V39.5366H101.115V38.1707H102.48ZM102.48 36.8049V38.1707H101.115V36.8049H102.48ZM102.48 35.439V36.8049H101.115V35.439H102.48ZM102.48 34.0732V35.439H101.115V34.0732H102.48ZM102.48 32.7073V34.0732H101.115V32.7073H102.48ZM102.48 31.3415V32.7073H101.115V31.3415H102.48ZM102.48 29.9756V31.3415H101.115V29.9756H102.48ZM102.48 28.6098V29.9756H101.115V28.6098H102.48ZM102.48 27.2439V28.6098H101.115V27.2439H102.48ZM102.48 25.878V27.2439H101.115V25.878H102.48ZM102.48 24.5122V25.878H101.115V24.5122H102.48ZM103.846 24.5122V25.878H102.48V24.5122H103.846ZM103.846 25.878V27.2439H102.48V25.878H103.846ZM103.846 27.2439V28.6098H102.48V27.2439H103.846ZM103.846 28.6098V29.9756H102.48V28.6098H103.846ZM103.846 29.9756V31.3415H102.48V29.9756H103.846ZM103.846 31.3415V32.7073H102.48V31.3415H103.846ZM103.846 32.7073V34.0732H102.48V32.7073H103.846ZM105.212 34.0732V35.439H103.846V34.0732H105.212ZM105.212 35.439V36.8049H103.846V35.439H105.212ZM105.212 36.8049V38.1707H103.846V36.8049H105.212ZM105.212 38.1707V39.5366H103.846V38.1707H105.212ZM105.212 39.5366V40.9024H103.846V39.5366H105.212ZM105.212 40.9024V42.2683H103.846V40.9024H105.212ZM105.212 42.2683V43.6341H103.846V42.2683H105.212ZM105.212 43.6341V45H103.846V43.6341H105.212ZM106.578 43.6341V45H105.212V43.6341H106.578ZM107.944 43.6341V45H106.578V43.6341H107.944ZM107.944 42.2683V43.6341H106.578V42.2683H107.944ZM107.944 40.9024V42.2683H106.578V40.9024H107.944ZM107.944 39.5366V40.9024H106.578V39.5366H107.944ZM107.944 38.1707V39.5366H106.578V38.1707H107.944ZM107.944 36.8049V38.1707H106.578V36.8049H107.944ZM107.944 35.439V36.8049H106.578V35.439H107.944ZM107.944 34.0732V35.439H106.578V34.0732H107.944ZM106.578 34.0732V35.439H105.212V34.0732H106.578ZM106.578 32.7073V34.0732H105.212V32.7073H106.578ZM106.578 35.439V36.8049H105.212V35.439H106.578ZM106.578 36.8049V38.1707H105.212V36.8049H106.578ZM106.578 38.1707V39.5366H105.212V38.1707H106.578ZM106.578 39.5366V40.9024H105.212V39.5366H106.578ZM106.578 40.9024V42.2683H105.212V40.9024H106.578ZM106.578 42.2683V43.6341H105.212V42.2683H106.578ZM103.846 43.6341V45H102.48V43.6341H103.846ZM103.846 42.2683V43.6341H102.48V42.2683H103.846ZM103.846 40.9024V42.2683H102.48V40.9024H103.846ZM103.846 39.5366V40.9024H102.48V39.5366H103.846ZM103.846 38.1707V39.5366H102.48V38.1707H103.846ZM103.846 36.8049V38.1707H102.48V36.8049H103.846ZM103.846 35.439V36.8049H102.48V35.439H103.846ZM103.846 34.0732V35.439H102.48V34.0732H103.846ZM102.48 20.4146V21.7805H101.115V20.4146H102.48ZM102.48 21.7805V23.1463H101.115V21.7805H102.48ZM102.48 23.1463V24.5122H101.115V23.1463H102.48ZM106.578 17.6829V19.0488H105.212V17.6829H106.578ZM106.578 20.4146V21.7805H105.212V20.4146H106.578ZM106.578 21.7805V23.1463H105.212V21.7805H106.578ZM106.578 23.1463V24.5122H105.212V23.1463H106.578ZM106.578 24.5122V25.878H105.212V24.5122H106.578ZM106.578 25.878V27.2439H105.212V25.878H106.578ZM106.578 27.2439V28.6098H105.212V27.2439H106.578ZM106.578 28.6098V29.9756H105.212V28.6098H106.578ZM107.944 29.9756V31.3415H106.578V29.9756H107.944ZM107.944 31.3415V32.7073H106.578V31.3415H107.944ZM107.944 32.7073V34.0732H106.578V32.7073H107.944ZM107.944 28.6098V29.9756H106.578V28.6098H107.944ZM107.944 27.2439V28.6098H106.578V27.2439H107.944ZM107.944 25.878V27.2439H106.578V25.878H107.944ZM107.944 24.5122V25.878H106.578V24.5122H107.944ZM107.944 23.1463V24.5122H106.578V23.1463H107.944ZM107.944 21.7805V23.1463H106.578V21.7805H107.944ZM107.944 20.4146V21.7805H106.578V20.4146H107.944ZM107.944 19.0488V20.4146H106.578V19.0488H107.944ZM107.944 17.6829V19.0488H106.578V17.6829H107.944ZM107.944 16.3171V17.6829H106.578V16.3171H107.944ZM106.578 19.0488V20.4146H105.212V19.0488H106.578ZM107.944 14.9512V16.3171H106.578V14.9512H107.944ZM107.944 13.5854V14.9512H106.578V13.5854H107.944ZM105.212 17.6829V19.0488H103.846V17.6829H105.212ZM105.212 19.0488V20.4146H103.846V19.0488H105.212ZM105.212 20.4146V21.7805H103.846V20.4146H105.212ZM103.846 21.7805V23.1463H102.48V21.7805H103.846ZM103.846 23.1463V24.5122H102.48V23.1463H103.846ZM103.846 20.4146V21.7805H102.48V20.4146H103.846ZM103.846 19.0488V20.4146H102.48V19.0488H103.846ZM105.212 21.7805V23.1463H103.846V21.7805H105.212ZM105.212 23.1463V24.5122H103.846V23.1463H105.212ZM105.212 24.5122V25.878H103.846V24.5122H105.212ZM105.212 25.878V27.2439H103.846V25.878H105.212ZM105.212 27.2439V28.6098H103.846V27.2439H105.212ZM105.212 28.6098V29.9756H103.846V28.6098H105.212ZM105.212 29.9756V31.3415H103.846V29.9756H105.212ZM105.212 31.3415V32.7073H103.846V31.3415H105.212ZM105.212 32.7073V34.0732H103.846V32.7073H105.212ZM106.578 31.3415V32.7073H105.212V31.3415H106.578ZM106.578 29.9756V31.3415H105.212V29.9756H106.578ZM117.505 43.6341V45H116.139V43.6341H117.505ZM117.505 42.2683V43.6341H116.139V42.2683H117.505ZM117.505 40.9024V42.2683H116.139V40.9024H117.505ZM117.505 39.5366V40.9024H116.139V39.5366H117.505ZM117.505 38.1707V39.5366H116.139V38.1707H117.505ZM117.505 36.8049V38.1707H116.139V36.8049H117.505ZM117.505 35.439V36.8049H116.139V35.439H117.505ZM117.505 34.0732V35.439H116.139V34.0732H117.505ZM117.505 32.7073V34.0732H116.139V32.7073H117.505ZM117.505 31.3415V32.7073H116.139V31.3415H117.505ZM117.505 29.9756V31.3415H116.139V29.9756H117.505ZM117.505 28.6098V29.9756H116.139V28.6098H117.505ZM117.505 27.2439V28.6098H116.139V27.2439H117.505ZM117.505 25.878V27.2439H116.139V25.878H117.505ZM117.505 24.5122V25.878H116.139V24.5122H117.505ZM118.871 24.5122V25.878H117.505V24.5122H118.871ZM118.871 25.878V27.2439H117.505V25.878H118.871ZM118.871 27.2439V28.6098H117.505V27.2439H118.871ZM118.871 28.6098V29.9756H117.505V28.6098H118.871ZM118.871 29.9756V31.3415H117.505V29.9756H118.871ZM118.871 31.3415V32.7073H117.505V31.3415H118.871ZM118.871 32.7073V34.0732H117.505V32.7073H118.871ZM120.236 34.0732V35.439H118.871V34.0732H120.236ZM120.236 35.439V36.8049H118.871V35.439H120.236ZM120.236 36.8049V38.1707H118.871V36.8049H120.236ZM120.236 38.1707V39.5366H118.871V38.1707H120.236ZM120.236 39.5366V40.9024H118.871V39.5366H120.236ZM120.236 40.9024V42.2683H118.871V40.9024H120.236ZM120.236 42.2683V43.6341H118.871V42.2683H120.236ZM120.236 43.6341V45H118.871V43.6341H120.236ZM121.602 43.6341V45H120.236V43.6341H121.602ZM122.968 43.6341V45H121.602V43.6341H122.968ZM122.968 42.2683V43.6341H121.602V42.2683H122.968ZM122.968 40.9024V42.2683H121.602V40.9024H122.968ZM122.968 39.5366V40.9024H121.602V39.5366H122.968ZM122.968 38.1707V39.5366H121.602V38.1707H122.968ZM122.968 36.8049V38.1707H121.602V36.8049H122.968ZM122.968 35.439V36.8049H121.602V35.439H122.968ZM122.968 34.0732V35.439H121.602V34.0732H122.968ZM121.602 34.0732V35.439H120.236V34.0732H121.602ZM121.602 32.7073V34.0732H120.236V32.7073H121.602ZM121.602 35.439V36.8049H120.236V35.439H121.602ZM121.602 36.8049V38.1707H120.236V36.8049H121.602ZM121.602 38.1707V39.5366H120.236V38.1707H121.602ZM121.602 39.5366V40.9024H120.236V39.5366H121.602ZM121.602 40.9024V42.2683H120.236V40.9024H121.602ZM121.602 42.2683V43.6341H120.236V42.2683H121.602ZM118.871 43.6341V45H117.505V43.6341H118.871ZM118.871 42.2683V43.6341H117.505V42.2683H118.871ZM118.871 40.9024V42.2683H117.505V40.9024H118.871ZM118.871 39.5366V40.9024H117.505V39.5366H118.871ZM118.871 38.1707V39.5366H117.505V38.1707H118.871ZM118.871 36.8049V38.1707H117.505V36.8049H118.871ZM118.871 35.439V36.8049H117.505V35.439H118.871ZM118.871 34.0732V35.439H117.505V34.0732H118.871ZM117.505 13.5854V14.9512H116.139V13.5854H117.505ZM117.505 14.9512V16.3171H116.139V14.9512H117.505ZM117.505 16.3171V17.6829H116.139V16.3171H117.505ZM117.505 17.6829V19.0488H116.139V17.6829H117.505ZM117.505 19.0488V20.4146H116.139V19.0488H117.505ZM117.505 20.4146V21.7805H116.139V20.4146H117.505ZM117.505 21.7805V23.1463H116.139V21.7805H117.505ZM117.505 23.1463V24.5122H116.139V23.1463H117.505ZM121.602 17.6829V19.0488H120.236V17.6829H121.602ZM121.602 20.4146V21.7805H120.236V20.4146H121.602ZM121.602 21.7805V23.1463H120.236V21.7805H121.602ZM121.602 23.1463V24.5122H120.236V23.1463H121.602ZM121.602 24.5122V25.878H120.236V24.5122H121.602ZM121.602 25.878V27.2439H120.236V25.878H121.602ZM121.602 27.2439V28.6098H120.236V27.2439H121.602ZM121.602 28.6098V29.9756H120.236V28.6098H121.602ZM122.968 29.9756V31.3415H121.602V29.9756H122.968ZM122.968 31.3415V32.7073H121.602V31.3415H122.968ZM122.968 32.7073V34.0732H121.602V32.7073H122.968ZM122.968 28.6098V29.9756H121.602V28.6098H122.968ZM122.968 27.2439V28.6098H121.602V27.2439H122.968ZM122.968 25.878V27.2439H121.602V25.878H122.968ZM122.968 24.5122V25.878H121.602V24.5122H122.968ZM122.968 23.1463V24.5122H121.602V23.1463H122.968ZM122.968 21.7805V23.1463H121.602V21.7805H122.968ZM122.968 20.4146V21.7805H121.602V20.4146H122.968ZM122.968 19.0488V20.4146H121.602V19.0488H122.968ZM121.602 19.0488V20.4146H120.236V19.0488H121.602ZM120.236 16.3171V17.6829H118.871V16.3171H120.236ZM120.236 17.6829V19.0488H118.871V17.6829H120.236ZM120.236 19.0488V20.4146H118.871V19.0488H120.236ZM120.236 20.4146V21.7805H118.871V20.4146H120.236ZM118.871 21.7805V23.1463H117.505V21.7805H118.871ZM118.871 23.1463V24.5122H117.505V23.1463H118.871ZM118.871 20.4146V21.7805H117.505V20.4146H118.871ZM118.871 19.0488V20.4146H117.505V19.0488H118.871ZM118.871 17.6829V19.0488H117.505V17.6829H118.871ZM118.871 16.3171V17.6829H117.505V16.3171H118.871ZM118.871 14.9512V16.3171H117.505V14.9512H118.871ZM120.236 21.7805V23.1463H118.871V21.7805H120.236ZM120.236 23.1463V24.5122H118.871V23.1463H120.236ZM120.236 24.5122V25.878H118.871V24.5122H120.236ZM120.236 25.878V27.2439H118.871V25.878H120.236ZM120.236 27.2439V28.6098H118.871V27.2439H120.236ZM120.236 28.6098V29.9756H118.871V28.6098H120.236ZM120.236 29.9756V31.3415H118.871V29.9756H120.236ZM120.236 31.3415V32.7073H118.871V31.3415H120.236ZM120.236 32.7073V34.0732H118.871V32.7073H120.236ZM121.602 31.3415V32.7073H120.236V31.3415H121.602ZM121.602 29.9756V31.3415H120.236V29.9756H121.602ZM110.675 10.8537V12.2195H109.31V10.8537H110.675ZM112.041 10.8537V12.2195H110.675V10.8537H112.041ZM113.407 10.8537V12.2195H112.041V10.8537H113.407ZM114.773 10.8537V12.2195H113.407V10.8537H114.773ZM116.139 12.2195V13.5854H114.773V12.2195H116.139ZM114.773 12.2195V13.5854H113.407V12.2195H114.773ZM113.407 12.2195V13.5854H112.041V12.2195H113.407ZM112.041 12.2195V13.5854H110.675V12.2195H112.041ZM110.675 12.2195V13.5854H109.31V12.2195H110.675ZM109.31 12.2195V13.5854H107.944V12.2195H109.31ZM109.31 13.5854V14.9512H107.944V13.5854H109.31ZM109.31 14.9512V16.3171H107.944V14.9512H109.31ZM110.675 13.5854V14.9512H109.31V13.5854H110.675ZM112.041 13.5854V14.9512H110.675V13.5854H112.041ZM113.407 13.5854V14.9512H112.041V13.5854H113.407ZM114.773 13.5854V14.9512H113.407V13.5854H114.773ZM116.139 13.5854V14.9512H114.773V13.5854H116.139ZM116.139 14.9512V16.3171H114.773V14.9512H116.139ZM114.773 14.9512V16.3171H113.407V14.9512H114.773ZM113.407 14.9512V16.3171H112.041V14.9512H113.407ZM112.041 14.9512V16.3171H110.675V14.9512H112.041ZM110.675 14.9512V16.3171H109.31V14.9512H110.675ZM109.31 16.3171V17.6829H107.944V16.3171H109.31ZM110.675 16.3171V17.6829H109.31V16.3171H110.675ZM116.139 16.3171V17.6829H114.773V16.3171H116.139ZM114.773 16.3171V17.6829H113.407V16.3171H114.773ZM116.139 17.6829V19.0488H114.773V17.6829H116.139ZM109.31 17.6829V19.0488H107.944V17.6829H109.31ZM106.578 14.9512V16.3171H105.212V14.9512H106.578ZM106.578 16.3171V17.6829H105.212V16.3171H106.578ZM105.212 16.3171V17.6829H103.846V16.3171H105.212ZM103.846 17.6829V19.0488H102.48V17.6829H103.846ZM102.48 19.0488V20.4146H101.115V19.0488H102.48ZM109.31 19.0488V20.4146H107.944V19.0488H109.31ZM110.675 17.6829V19.0488H109.31V17.6829H110.675ZM112.041 16.3171V17.6829H110.675V16.3171H112.041ZM113.407 16.3171V17.6829H112.041V16.3171H113.407ZM114.773 17.6829V19.0488H113.407V17.6829H114.773ZM116.139 19.0488V20.4146H114.773V19.0488H116.139ZM109.31 35.439V36.8049H107.944V35.439H109.31ZM110.675 35.439V36.8049H109.31V35.439H110.675ZM112.041 35.439V36.8049H110.675V35.439H112.041ZM113.407 35.439V36.8049H112.041V35.439H113.407ZM114.773 35.439V36.8049H113.407V35.439H114.773ZM116.139 35.439V36.8049H114.773V35.439H116.139ZM116.139 34.0732V35.439H114.773V34.0732H116.139ZM114.773 34.0732V35.439H113.407V34.0732H114.773ZM113.407 34.0732V35.439H112.041V34.0732H113.407ZM112.041 34.0732V35.439H110.675V34.0732H112.041ZM110.675 34.0732V35.439H109.31V34.0732H110.675ZM109.31 34.0732V35.439H107.944V34.0732H109.31ZM109.31 32.7073V34.0732H107.944V32.7073H109.31ZM110.675 32.7073V34.0732H109.31V32.7073H110.675ZM112.041 32.7073V34.0732H110.675V32.7073H112.041ZM113.407 32.7073V34.0732H112.041V32.7073H113.407ZM114.773 32.7073V34.0732H113.407V32.7073H114.773ZM116.139 32.7073V34.0732H114.773V32.7073H116.139ZM116.139 31.3415V32.7073H114.773V31.3415H116.139ZM114.773 31.3415V32.7073H113.407V31.3415H114.773ZM113.407 31.3415V32.7073H112.041V31.3415H113.407ZM112.041 31.3415V32.7073H110.675V31.3415H112.041ZM110.675 31.3415V32.7073H109.31V31.3415H110.675ZM109.31 31.3415V32.7073H107.944V31.3415H109.31ZM109.31 29.9756V31.3415H107.944V29.9756H109.31ZM110.675 29.9756V31.3415H109.31V29.9756H110.675ZM112.041 29.9756V31.3415H110.675V29.9756H112.041ZM113.407 29.9756V31.3415H112.041V29.9756H113.407ZM114.773 29.9756V31.3415H113.407V29.9756H114.773ZM116.139 29.9756V31.3415H114.773V29.9756H116.139ZM112.041 17.6829V19.0488H110.675V17.6829H112.041ZM113.407 17.6829V19.0488H112.041V17.6829H113.407ZM110.675 19.0488V20.4146H109.31V19.0488H110.675ZM109.31 20.4146V21.7805H107.944V20.4146H109.31ZM114.773 19.0488V20.4146H113.407V19.0488H114.773ZM116.139 20.4146V21.7805H114.773V20.4146H116.139Z" fill="#B742FF"/>
</svg>
