<svg width="40" height="39" viewBox="0 0 40 39" fill="none" xmlns="http://www.w3.org/2000/svg">
<rect x="0.15" y="0.15" width="39.7" height="38.7" rx="7.85" fill="#F32222" fill-opacity="0.3"/>
<rect x="0.15" y="0.15" width="39.7" height="38.7" rx="7.85" stroke="#F52323" stroke-width="0.3"/>
<path d="M23.75 31.25L16.25 28.625L10.4375 30.875C10.0208 31.0417 9.63542 30.9948 9.28125 30.7344C8.92708 30.474 8.75 30.125 8.75 29.6875V12.1875C8.75 11.9167 8.82812 11.6771 8.98438 11.4688C9.14062 11.2604 9.35417 11.1042 9.625 11L16.25 8.75L23.75 11.375L29.5625 9.125C29.9792 8.95833 30.3646 9.00521 30.7188 9.26562C31.0729 9.52604 31.25 9.875 31.25 10.3125V27.8125C31.25 28.0833 31.1719 28.3229 31.0156 28.5312C30.8594 28.7396 30.6458 28.8958 30.375 29L23.75 31.25ZM22.5 28.1875V13.5625L17.5 11.8125V26.4375L22.5 28.1875ZM25 28.1875L28.75 26.9375V12.125L25 13.5625V28.1875ZM11.25 27.875L15 26.4375V11.8125L11.25 13.0625V27.875Z" fill="#CF2B2B"/>
</svg>
