<svg width="41" height="39" viewBox="0 0 41 39" fill="none" xmlns="http://www.w3.org/2000/svg">
<rect x="0.15" y="0.15" width="40.7" height="38.7" rx="7.85" fill="#50EBB7" fill-opacity="0.33"/>
<rect x="0.15" y="0.15" width="40.7" height="38.7" rx="7.85" stroke="#35A17C" stroke-width="0.3"/>
<path d="M16.8834 15.8834L19.7574 11.1365L17.8522 7.97192C17.5938 7.54136 17.2225 7.32608 16.7381 7.32608C16.2537 7.32608 15.8824 7.54136 15.624 7.97192L12.4595 13.2355L16.8834 15.8834ZM29.3803 24.6667L26.5063 19.8875L30.9949 17.3042L33.0615 20.7594C33.2983 21.1254 33.4275 21.5344 33.449 21.9865C33.4706 22.4386 33.3737 22.8584 33.1584 23.2459C32.9431 23.6764 32.6256 24.0209 32.2058 24.2792C31.786 24.5375 31.3286 24.6667 30.8334 24.6667H29.3803ZM25.6667 33.7084L20.5001 28.5417L25.6667 23.375V25.9584H31.8022L29.9292 29.7042C29.6924 30.1348 29.3695 30.4792 28.9605 30.7375C28.5515 30.9959 28.0994 31.125 27.6042 31.125H25.6667V33.7084ZM13.1699 31.125C12.7393 31.125 12.3464 31.012 11.9912 30.786C11.636 30.5599 11.3723 30.2639 11.2001 29.898C11.0279 29.5535 10.9471 29.1929 10.9579 28.8162C10.9687 28.4394 11.0709 28.0896 11.2647 27.7667L12.3626 25.9584H17.9167V31.125H13.1699ZM9.973 27.4438L7.87404 23.2459C7.68029 22.8584 7.5888 22.444 7.59956 22.0026C7.61032 21.5613 7.73411 21.1469 7.97091 20.7594L8.48758 19.8875L6.29175 18.5636L13.3636 16.7875L15.1397 23.8917L12.9115 22.5355L9.973 27.4438ZM27.4105 16.4L20.3386 14.624L22.5667 13.3L18.5303 6.58337H23.0834C23.5355 6.58337 23.9607 6.69639 24.3589 6.92244C24.7572 7.14848 25.0747 7.45525 25.3115 7.84275L26.9907 10.6521L29.1865 9.29587L27.4105 16.4Z" fill="#35A17C"/>
</svg>
